# xmcd
# 
# Track frame offsets:
#     150
#     15202
#     30310
#     48767
#     71467
#     84570
#     97785
#     128152
#     149295
#     162517
#     184352
#     200302
#     214797
#     234802
#     251177
#     268365
#     280687
#     297977
# 
# Disc length: 4206
# 
# Revision: 2
# Processed by: cddbd v1.5.2PL0 Copyright (c) Steve Scherf et al.
# Submitted via: fre:ac v1.0.31
# 
DISCID=f9106c12
DTITLE=Poco - Ultimate Collection
DYEAR=1998
DGENRE=Rock/Pop
TTITLE0=Pickin' up the Pieces
TTITLE1=You Better Think Twice
TTITLE2=A Good Feelin' to Know
TTITLE3=Bad Weather
TTITLE4=Keep on Tryin'
TTITLE5=Makin' Love
TTITLE6=Rose of Cimarron
TTITLE7=Indian Summer
TTITLE8=Crazy Love
TTITLE9=Heart of the Night
TTITLE10=Barbados
TTITLE11=Under the Gun
TTITLE12=Midnight Rain
TTITLE13=Widowmaker
TTITLE14=Streets of Paradise
TTITLE15=Shoot for the Moon
TTITLE16=Days Gone By
TTITLE17=Call It Love
EXTD=YEAR: 1998
EXTT0=
EXTT1=
EXTT2=
EXTT3=
EXTT4=
EXTT5=
EXTT6=
EXTT7=
EXTT8=
EXTT9=
EXTT10=
EXTT11=
EXTT12=
EXTT13=
EXTT14=
EXTT15=
EXTT16=
EXTT17=
PLAYORDER=
